<?xml version="1.0" standalone="no"?><!DOCTYPE svg PUBLIC "-//W3C//DTD SVG 1.1//EN" "http://www.w3.org/Graphics/SVG/1.1/DTD/svg11.dtd"><svg t="1603457820937" class="icon" viewBox="0 0 1026 1024" version="1.1" xmlns="http://www.w3.org/2000/svg" p-id="4185" xmlns:xlink="http://www.w3.org/1999/xlink" width="200.390625" height="200"><defs><style type="text/css"></style></defs><path d="M512 32c-264.676 0-480 215.346-480 480 0 264.676 215.324 480 480 480s480-215.324 480-480c0-264.654-215.324-480-480-480zM754.727 387.396l-275.411 276.393c-0.131 0.131-0.306 0.131-0.436 0.262-1.876 1.789-3.971 3.186-6.262 4.167-0.48 0.262-0.982 0.393-1.462 0.546-2.356 0.851-4.8 1.396-7.266 1.44-0.022 0-0.044 0-0.044 0l0 0-0.022 0c-2.487 0-4.974-0.589-7.353-1.44-0.72-0.262-1.374-0.633-2.073-0.982-0.96-0.458-1.942-0.764-2.858-1.374l-179.149-122.226c-9.971-6.829-12.524-20.378-5.738-30.349 6.807-9.927 20.378-12.502 30.327-5.716l164.16 111.993 262.669-263.586c8.487-8.531 22.276-8.574 30.851-0.044 8.553 8.553 8.596 22.364 0.066 30.916z" p-id="4186" fill="#1afa29"></path></svg>