<?xml version="1.0" standalone="no"?><!DOCTYPE svg PUBLIC "-//W3C//DTD SVG 1.1//EN" "http://www.w3.org/Graphics/SVG/1.1/DTD/svg11.dtd"><svg t="1603457851316" class="icon" viewBox="0 0 1026 1024" version="1.1" xmlns="http://www.w3.org/2000/svg" p-id="4384" xmlns:xlink="http://www.w3.org/1999/xlink" width="200.390625" height="200"><defs><style type="text/css"></style></defs><path d="M512 32c-264.654 0-480 215.346-480 480s215.324 480 480 480c264.676 0 480-215.324 480-480 0-264.654-215.324-480-480-480zM671.774 645.287c8.16 8.182 8.16 21.382 0 29.542-4.08 4.102-9.404 6.087-14.771 6.087-5.324 0-10.647-2.007-14.749-6.087l-131.782-131.804-131.804 131.804c-4.08 4.102-9.426 6.131-14.771 6.131-5.324 0-10.669-2.051-14.749-6.131-8.16-8.138-8.16-21.36 0-29.498l131.804-131.804-127.724-127.724c-8.138-8.182-8.138-21.36 0-29.542 8.138-8.138 21.36-8.138 29.52 0l127.724 127.724 134.814-134.836c8.182-8.138 21.36-8.138 29.542 0 8.138 8.16 8.138 21.36 0 29.542l-134.836 134.836 131.782 131.76z" p-id="4385" fill="#d81e06"></path></svg>